PathFileType	4	(X/Y/Z)	D:\Research_projects\MuscleProsody\BulkSports2Dtrack\RetrackedSports2D\p1_sample60_cam1\p1_sample60_cam1_Sports2D\p1_sample60_cam1_Sports2D_px_person00.trc
DataRate	CameraRate	NumFrames	NumMarkers	Units	OrigDataRate	OrigDataStartFrame	OrigNumFrames
60	60	9	22	m	60	487	780
Frame#	Time	Hip			RHip			RKnee			RAnkle			RBigToe			RSmallToe			RHeel			LHip			LKnee			LAnkle			LBigToe			LSmallToe			LHeel			Neck			Head			Nose			RShoulder			RElbow			RWrist			LShoulder			LElbow			LWrist		
		X1	Y1	Z1	X2	Y2	Z2	X3	Y3	Z3	X4	Y4	Z4	X5	Y5	Z5	X6	Y6	Z6	X7	Y7	Z7	X8	Y8	Z8	X9	Y9	Z9	X10	Y10	Z10	X11	Y11	Z11	X12	Y12	Z12	X13	Y13	Z13	X14	Y14	Z14	X15	Y15	Z15	X16	Y16	Z16	X17	Y17	Z17	X18	Y18	Z18	X19	Y19	Z19	X20	Y20	Z20	X21	Y21	Z21	X22	Y22	Z22
487	8.116666666666667	321.38690660249574	541.7562357920375	0.0	292.6986466602312	540.8636910674636	0.0	285.11584298690866	679.1170612134963	0.0	273.91075136976747	806.5394173228862	0.0	310.57514122716066	848.3253862193721	0.0	288.0729712847104	852.7997497956381	0.0	265.67862133162123	819.005635143879	0.0	349.15620801667745	542.4681689097912	0.0	334.6855354663118	675.4786716590721	0.0	312.95095377484427	787.5405126732178	0.0	347.16458546918375	827.7660058422078	0.0	351.67966329091854	814.7634270204948	0.0	298.9843292946097	800.8080093039493	0.0	336.790238331708	322.8525511807014	0.0	369.1913698676361	227.40365013319396	0.0	368.9385357028844	286.74911012283144	0.0	274.9916172043108	354.7712521192873	0.0	240.21852715038074	445.5194224481397	0.0	317.78354645128485	393.7619511890646	0.0	373.07420727085344	364.63360224145873	0.0	403.82188966978913	446.1217787751816	0.0	424.2772245743777	429.0108720595258	0.0
488	8.133333333333333	320.8849132894342	541.5684285555161	0.0	292.20735598519707	540.2749772073234	0.0	284.83091094876374	678.9446528429253	0.0	273.58918959926507	806.6820975689881	0.0	310.9219177166627	848.4194856982432	0.0	288.2672521683268	852.9873318319031	0.0	265.2202552913328	819.0019626920669	0.0	348.78075357428077	542.1322997705802	0.0	334.5183199716696	675.4392527070552	0.0	312.7018738416987	787.6711995526248	0.0	347.7133117961945	827.7972493623593	0.0	351.8545153841323	814.6672772981565	0.0	299.062288346851	800.9281436968681	0.0	336.7859355888023	322.9145126320212	0.0	369.3457213864907	227.4954632340548	0.0	369.2260371012273	286.90424567908065	0.0	274.5253320766808	355.3511021938264	0.0	242.32119406614248	449.3463682438286	0.0	310.7417370396928	393.5285317564489	0.0	372.6137853744827	364.89605675004964	0.0	400.4226652849561	448.635106924639	0.0	429.3740882520277	428.8127571567082	0.0
489	8.15	320.3813061933921	541.4445651705432	0.0	291.77403689722115	539.8315008185386	0.0	284.5958632550131	678.8844593005889	0.0	273.30794681415307	806.8451390679671	0.0	311.24819955453734	848.5577346973218	0.0	288.46191474936467	853.1978168005891	0.0	264.7973292820026	819.0355018012309	0.0	348.3662243292599	541.9505373681976	0.0	334.3410942490431	675.4421837002917	0.0	312.44703745928246	787.8127737101676	0.0	348.27009013201774	827.9142455156989	0.0	352.0229787188048	814.6352798381506	0.0	299.1890061709465	801.069306635146	0.0	336.79667777102867	323.01761686159097	0.0	369.49389492067104	227.59674828719534	0.0	369.5260075606697	287.0669904485135	0.0	274.09563161949205	355.950719016828	0.0	244.21726118604298	452.6908118512292	0.0	302.95708594274566	395.8422792515206	0.0	372.2115038483674	365.1795500584429	0.0	397.088345157223	450.9351689876563	0.0	434.762171849697	430.1723918746749	0.0
490	8.166666666666666	319.8960359382796	541.4075049191962	0.0	291.41171767403335	539.59433613653	0.0	284.41173909746675	678.9664739403698	0.0	273.08313724555785	807.0221212594533	0.0	311.5256432822003	848.7438516735913	0.0	288.6399842904756	853.4294755505027	0.0	264.4289396373006	819.1027447405609	0.0	347.93758329026065	541.9699899116999	0.0	334.1549363752236	675.5096107153014	0.0	312.1950882940136	787.9597075463348	0.0	348.79340625803195	828.1173553453189	0.0	352.15820593267324	814.674510033231	0.0	299.35686062697914	801.2196920360124	0.0	336.8174841980356	323.15273429446887	0.0	369.6378148643156	227.71869983463222	0.0	369.827622137697	287.23536997948514	0.0	273.7089904550155	356.55436806440605	0.0	245.8131740459135	455.37117682585625	0.0	294.7323569652546	400.60617701294285	0.0	371.8901027911269	365.47050816554287	0.0	393.99012988611895	452.9153392093825	0.0	440.1760925004678	433.0814911111964	0.0
491	8.183333333333334	319.44748284717986	541.4759156091567	0.0	291.126912892678	539.6102559269176	0.0	284.27429764853326	679.2012121727141	0.0	272.9261820596797	807.1922897412409	0.0	311.73094368673367	848.9721442010974	0.0	288.7857032887554	853.6719064852817	0.0	264.1283879325972	819.190258712652	0.0	347.5178252461414	542.2211875027106	0.0	333.95706461457223	675.6546256979409	0.0	311.9532855548395	788.0991420362972	0.0	349.2517116648256	828.3922416274243	0.0	352.24119122714757	814.7798644671003	0.0	299.55521889629483	801.3654249451741	0.0	336.8372490701373	323.313617649858	0.0	369.7753856625176	227.86804114860325	0.0	370.12286577909276	287.4062931116099	0.0	273.36461680948105	357.144678220154	0.0	247.03151901309243	457.2607208670012	0.0	286.38449855470947	407.52887555028735	0.0	371.65714418470765	365.7603910531242	0.0	391.260597130277	454.5130656745412	0.0	445.35884073762065	437.41846783345545	0.0
492	8.2	319.0548766044143	541.6589471599235	0.0	290.92697349856616	539.9008977014126	0.0	284.1768368732479	679.5763683108989	0.0	272.8427869493968	807.3327285599681	0.0	311.8505110238494	849.2267828316276	0.0	288.88355524144845	853.9096010512369	0.0	263.9078948856028	819.2821583876805	0.0	347.12398488299846	542.7082783616546	0.0	333.74422998540444	675.8769216225239	0.0	311.72665238077667	788.2143143035026	0.0	349.62844078100875	828.7122521919733	0.0	352.2684321749502	814.9391450876225	0.0	299.76969646977136	801.4892288937197	0.0	336.8446555772826	323.4981926886512	0.0	369.9033177538089	228.04400157827968	0.0	370.40728143584585	287.57842533279387	0.0	273.0645063846704	357.69922736197464	0.0	247.82174900263686	458.3017362656438	0.0	278.23082110850885	416.12098590462347	0.0	371.5086745289366	366.0496447397657	0.0	388.98279328498455	455.7114797309798	0.0	450.08673940656706	442.92898512425023	0.0
493	8.216666666666667	318.73456142822965	541.9509916961065	0.0	290.81739571259067	540.4572115077927	0.0	284.11066570217787	680.0603153482879	0.0	272.83183558451316	807.423732632682	0.0	311.8817311614325	849.4863526641858	0.0	288.9222318644352	854.1255353481777	0.0	263.77743528840614	819.3658224419178	0.0	346.76554686913795	543.4058225387638	0.0	333.5135827217348	676.1649013535887	0.0	311.51697665178375	788.288388066639	0.0	349.9212113012325	829.041666381647	0.0	352.2521321206718	815.1339978261753	0.0	299.9821646692058	801.5742655108992	0.0	336.8344323408528	323.7057567173314	0.0	370.026264474929	228.241037536534	0.0	370.68035691124805	287.752667071444	0.0	272.8137401309913	358.1930806652798	0.0	248.1611889132302	458.5187804972683	0.0	270.5793447278867	425.73155683870084	0.0	371.43276603183637	366.3442775918183	0.0	387.18756088408725	456.5336836575536	0.0	454.18148069108287	449.2317310827652	0.0
494	8.233333333333333	318.49395108778134	542.3311129296013	0.0	290.7940687060596	541.2453086869147	0.0	284.06576015828387	680.6148568698798	0.0	272.8848748492748	807.4494491348993	0.0	311.8328231405435	849.7308151629545	0.0	288.8996901738552	854.3042576037419	0.0	263.7376018573241	819.4334385721257	0.0	346.4443977784383	544.2675251309697	0.0	333.261741783935	676.5058855121374	0.0	311.32240894073624	788.3065131019312	0.0	350.138582797605	829.3400828882402	0.0	352.2126505602665	815.3392540695534	0.0	300.17221699520854	801.6086843627821	0.0	336.80871934411476	323.9339845458477	0.0	370.1583026127099	228.4521417057231	0.0	370.94361244645904	287.9302947216049	0.0	272.61438334906927	358.60743437880114	0.0	248.05049528327655	458.02948091856587	0.0	263.7078957723658	435.6427670515897	0.0	371.41201775690297	366.6480436476507	0.0	385.855056506229	457.03337321715765	0.0	457.5198667952228	455.8655132539004	0.0
495	8.25	318.3299601721713	542.7700978811683	0.0	290.8409740904269	542.2178613002538	0.0	284.03307856187945	681.2089791678231	0.0	272.98802520782465	807.4006468610485	0.0	311.7227481563292	849.9457224322759	0.0	288.82282279462555	854.4365473782523	0.0	263.77536736188836	819.4820028409047	0.0	346.155021290886	545.2403152533856	0.0	332.9836089485535	676.8968668365007	0.0	311.13877211215765	788.2567352978297	0.0	350.2939684977775	829.5719575628524	0.0	352.16880767184364	815.5290597612056	0.0	300.32089587887276	801.586284240487	0.0	336.7731391348928	324.1771706820423	0.0	370.31232676793815	228.66870412992907	0.0	371.19841891531365	288.1103866667278	0.0	272.46305974998165	358.93316325369653	0.0	247.50804841831763	457.0407666001962	0.0	257.8357031470543	445.1964916412844	0.0	371.4257805301142	366.95724638031066	0.0	384.9245178436309	457.2815010752711	0.0	460.0482944654	462.36661798461677	0.0
